<svg width="372" height="53" viewBox="0 0 372 53" fill="none" xmlns="http://www.w3.org/2000/svg">
<g clip-path="url(#clip0_2358_932)">
<path d="M96.1476 42.8189V10.1587H115.758V16.6907H122.294V36.2868H115.758V42.8189H96.1476ZM102.684 36.2868H115.496V16.6907H102.684V36.2868Z" fill="white"/>
<path d="M127.524 42.8189V10.1587H147.135V16.6907H134.061V23.2228H147.135V29.7548H134.061V36.2868H147.135V42.8189H127.524Z" fill="white"/>
<path d="M152.364 42.8189V10.1587H171.974V16.6907H158.9V23.2228H171.974V29.7548H158.9V36.2868H171.974V42.8189H152.364Z" fill="white"/>
<path d="M177.204 42.8189V10.1587H196.814V16.6907H203.351V23.2228H196.814V29.7548H183.741V42.8189H177.204ZM183.741 23.2228H196.552V16.6907H183.741V23.2228Z" fill="white"/>
<path d="M215.117 16.6907V10.1587H234.727V16.6907H215.117ZM228.191 36.2868V29.7548H215.117V23.2228H208.58V16.6907H215.117V23.2228H228.191V29.7548H234.727V36.2868H228.191ZM208.58 42.8189V36.2868H228.191V42.8189H208.58Z" fill="#D6FC70"/>
<path d="M239.957 42.8189V10.1587H246.494V16.6907H253.03V23.2228H259.567V29.7548H266.104V10.1587H272.641V42.8189H266.104V36.2868H259.567V29.7548H253.03V23.2228H246.494V42.8189H239.957Z" fill="#D6FC70"/>
<path d="M277.87 42.8189V10.1587H284.407V42.8189H277.87Z" fill="#D6FC70"/>
<path d="M296.173 42.8189V16.6907H289.637V10.1587H309.247V16.6907H302.71V42.8189H296.173Z" fill="#D6FC70"/>
<path d="M334.087 23.2228V16.6907H321.013V10.1587H334.087V16.6907H340.624V23.2228H334.087ZM321.013 42.8189V36.2868H314.476V16.6907H321.013V36.2868H334.087V42.8189H321.013ZM334.087 36.2868V29.7548H340.624V36.2868H334.087Z" fill="#D6FC70"/>
<path d="M345.853 42.8189V10.1587H352.389V23.2228H365.463V10.1587H372V42.8189H365.463V29.7548H352.389V42.8189H345.853Z" fill="#D6FC70"/>
<path fill-rule="evenodd" clip-rule="evenodd" d="M73.1966 16.2541H69.167V12.1906H65.0637V8.12706L60.9972 8.12701V0L56.9307 5.58041e-05V4.06364H52.8642V8.12716H48.7978V16.2541H52.8642V20.3177H56.9307V24.3811H65.0637V20.3177H73.1966V16.2541ZM13.9955 16.2541H22.0404V12.1906H16.2659V7.1339V6.03107V2.03177H6.09971V8.12706H4.06649V12.1906H1.70637e-05V15.0911V15.5692L0 20.3177H13.9955V16.2541ZM55.1008 24.4753V32.6006L55.1025 32.6024H60.9972V44.7756H52.8642V48.8565H34.5651V52.92H26.4322V48.8565H24.3988V52.92H17.8925V48.8284H11.9961V44.7756H3.86315V36.6659H7.92964V28.5388H11.9961V24.4753H16.0626V20.4118H24.1956V16.3482H44.7313V20.4118H48.7978V24.4753H55.1008ZM12.1995 40.6353H20.3324L20.3706 32.5111H12.1995V40.6353ZM42.698 36.6659H44.7313V27.3366H34.7684V32.6024H32.5319V40.7295H42.698V36.6659Z" fill="url(#paint0_linear_2358_932)"/>
</g>
<defs>
<linearGradient id="paint0_linear_2358_932" x1="10.221" y1="21.2969" x2="36.9998" y2="50.899" gradientUnits="userSpaceOnUse">
<stop stop-color="#C3FC61"/>
<stop offset="1" stop-color="#74FFA9"/>
</linearGradient>
<clipPath id="clip0_2358_932">
<rect width="372" height="53" fill="white"/>
</clipPath>
</defs>
</svg>
